<svg width="33" height="39" viewBox="0 0 33 39" fill="none" xmlns="http://www.w3.org/2000/svg">
<path d="M32.4696 35.1972L21.8122 18.5952C21.7826 18.6258 21.7826 18.6258 21.7232 18.6871C19.2315 20.8621 16.384 22.2713 13.6254 23.221C14.4559 24.5076 15.2271 25.6411 15.9094 26.8053C16.6212 27.9693 17.3035 29.0722 17.9857 30.1751C18.6976 31.3392 19.3502 32.442 20.0918 33.5448C20.8037 34.709 21.6342 35.8425 22.4944 37.0984C22.6724 37.4048 22.9097 37.6193 23.147 37.7724C23.4436 37.9563 23.7106 38.0175 23.9775 38.0175H31.3538C31.7395 38.0175 32.4277 37.8861 32.7004 37.362C33.2652 36.2762 32.6179 35.5035 32.4696 35.1972Z" fill="#008041"/>
<path d="M10.5107 15.1948V2.12134C10.5107 2.06095 10.4974 1.9659 10.4755 1.85054C10.2988 0.919531 9.53264 0.200194 8.59656 0.0340541C8.47782 0.0129763 8.38433 0 8.33417 0H2.95792C2.93586 0 2.90882 0.00153345 2.87751 0.00438754C1.83759 0.0993437 0.994362 0.983172 0.903849 2.01989C0.901359 2.04836 0.900024 2.07223 0.900024 2.09071V15.93V24.4158V35.9268C0.900024 37.2875 2.24598 37.9869 2.98754 37.9869H8.33417C9.10543 37.9869 10.481 37.0887 10.481 35.9268V23.9869L10.5107 15.1948Z" fill="#008041"/>
<path d="M29.643 2.15198C29.3464 9.50432 26.2912 14.5515 21.8417 18.5952C21.8121 18.6258 21.8121 18.6258 21.7528 18.687C19.2611 20.8621 16.4135 22.2713 13.6549 23.221H13.6252C12.587 23.5274 11.5488 23.7724 10.5404 23.9869C8.04867 24.5076 5.7943 24.6302 3.95522 24.6302C2.67981 24.6302 1.64159 24.5383 0.929688 24.4464V15.9606C2.08653 16.0525 6.29863 16.3895 10.5106 15.1948C12.587 14.6433 14.6041 13.7549 16.2652 12.2845C16.2949 12.2538 16.2949 12.2538 16.3542 12.1926C19.0535 9.77244 21.1299 6.90033 21.3671 2.06008C21.3671 1.44738 21.732 0 23.2369 0C24.7418 0 27.5555 0 27.5555 0C29.0634 0 29.643 1.50865 29.643 2.15198Z" fill="url(#paint0_linear_443_1072)"/>
<defs>
<linearGradient id="paint0_linear_443_1072" x1="0.912841" y1="12.3179" x2="29.6301" y2="12.3179" gradientUnits="userSpaceOnUse">
<stop stop-color="#C67D29"/>
<stop offset="0.2865" stop-color="white"/>
<stop offset="0.5056" stop-color="#FDDC60"/>
<stop offset="1" stop-color="#BD6828"/>
</linearGradient>
</defs>
</svg>
